<?xml version="1.0" standalone="no"?>
<!DOCTYPE svg PUBLIC "-//W3C//DTD SVG 20010904//EN"
 "http://www.w3.org/TR/2001/REC-SVG-20010904/DTD/svg10.dtd">
<svg version="1.0" xmlns="http://www.w3.org/2000/svg"
 width="94.000000pt" height="94.000000pt" viewBox="0 0 94.000000 94.000000"
 preserveAspectRatio="xMidYMid meet">
<metadata>
Created by potrace 1.14, written by Peter Selinger 2001-2017
</metadata>
<g transform="translate(0.000000,94.000000) scale(0.100000,-0.100000)"
fill="#000000" stroke="none">
<path d="M470 920 c0 -13 -7 -20 -20 -20 -19 0 -20 -7 -20 -130 0 -123 -1
-130 -20 -130 -13 0 -20 -7 -20 -20 0 -16 -7 -20 -30 -20 -23 0 -30 -4 -30
-20 0 -16 -7 -20 -30 -20 -23 0 -30 -4 -30 -20 0 -18 -7 -20 -60 -20 l-60 0 0
60 0 60 -40 0 c-33 0 -40 -3 -40 -20 0 -13 -7 -20 -20 -20 -19 0 -20 -7 -20
-120 0 -113 1 -120 20 -120 13 0 20 -7 20 -20 0 -13 7 -20 20 -20 13 0 20 -7
20 -20 0 -13 7 -20 20 -20 13 0 20 -7 20 -20 0 -13 7 -20 20 -20 17 0 20 -7
20 -40 0 -33 3 -40 20 -40 18 0 20 -7 20 -80 l0 -80 80 0 80 0 0 40 c0 33 -3
40 -20 40 -13 0 -20 7 -20 20 0 13 7 20 20 20 13 0 20 7 20 20 0 13 7 20 20
20 18 0 20 -7 20 -80 l0 -80 80 0 80 0 0 40 c0 33 -3 40 -20 40 -17 0 -20 7
-20 40 0 33 3 40 20 40 17 0 20 7 20 40 0 33 3 40 20 40 17 0 20 7 20 50 0 43
3 50 20 50 16 0 20 7 20 30 0 28 2 30 40 30 l40 0 0 80 0 80 40 0 40 0 0 40 0
40 40 0 40 0 0 110 c0 103 -1 110 -20 110 -17 0 -20 7 -20 40 l0 40 -200 0
c-193 0 -200 -1 -200 -20z"/>
</g>
</svg>
